<?xml version='1.0' encoding='iso-8859-1'?>
<svg version="1.1" xmlns="http://www.w3.org/2000/svg" viewBox="0 0 8.646 8.646" xmlns:xlink="http://www.w3.org/1999/xlink" enable-background="new 0 0 8.646 8.646">
  <g>
    <g>
      <path d="m8.611,3.002c-0.038-0.065-0.098-0.107-0.17-0.115l-3.948-2.338c-0.038-0.037-0.117-0.058-0.171-0.063-0.011-0.002 0.007-0.002-0.003,0-0.054,0.005-0.132,0.026-0.172,0.063l-3.948,2.338c-0.068,0.01-0.17,0.053-0.199,0.22 0.004-0.023-0.018,0.221 0.2,0.251l1.249,.739c-0.001,0.009-0.005,0.016-0.005,0.026v1.115c-0.009,0.063 0.013,0.126 0.055,0.175 0.035,0.052 0.085,0.087 0.143,0.099l2.529,1.435c0.097,0.056 0.205,0.056 0.287,0.004l1.547-.885v1.284l-.417,.413c-0.092,0.092-0.092,0.238 0,0.329 0.091,0.092 0.24,0.092 0.331,0l.324-.321 .322,.321c0.091,0.092 0.238,0.092 0.329,0 0.091-0.091 0.091-0.237 0-0.329l-.41-.409v-1.554l.514-.285c0.062-0.011 0.115-0.047 0.152-0.102 0.042-0.048 0.062-0.11 0.054-0.172v-1.118c0-0.009-0.004-0.017-0.004-0.026l1.249-.74c0.066-0.011 0.127-0.046 0.162-0.107 0.014-0.023 0.02-0.049 0.024-0.074 0.002-0.004 0.004-0.007 0.005-0.011v-0.003c0.014-0.056 0.002-0.108-0.029-0.16zm-2.606,2.533l-1.69,.94-2.39-1.338v-0.76l2.227,1.317c0.039,0.037 0.11,0.058 0.164,0.062 0.011,0.002 0,0.002 0.011,0 0.053-0.003 0.132-0.023 0.17-0.061l1.508-.892v0.732zm.72-.394l-.24,.132v-0.752l.24-.142v0.762zm-.415-1.055l-1.819-1.309c-0.115-0.066-0.262-0.026-0.328,0.088-0.066,0.115-0.027,0.262 0.088,0.328l1.617,1.154-1.544,.914-3.613-2.139 3.609-2.138 3.614,2.141-1.624,.961z"/>
    </g>
  </g>
</svg>
